<svg width="36" height="26" viewBox="0 0 36 26" fill="none" xmlns="http://www.w3.org/2000/svg">
<path d="M13.3982 5.44836V10.4861H0.666626V5.44836H13.3982ZM3.13243 0.813599H10.0769V18.5718C10.0769 18.8405 10.1231 19.0672 10.2153 19.2519C10.3076 19.4282 10.4502 19.5625 10.6431 19.6549C10.836 19.7389 11.0834 19.7809 11.3853 19.7809C11.595 19.7809 11.8382 19.7557 12.115 19.7053C12.4002 19.6549 12.6098 19.6129 12.744 19.5793L13.7505 24.466C13.4402 24.5583 12.9957 24.6717 12.4169 24.806C11.8466 24.9404 11.1673 25.0285 10.3789 25.0705C8.78533 25.1545 7.44759 24.9908 6.36566 24.5793C5.28372 24.1595 4.47017 23.5004 3.92501 22.602C3.37985 21.7036 3.11566 20.5785 3.13243 19.2267V0.813599Z" fill="#4EA8DE"/>
<path d="M25.3341 25.1461C23.2373 25.1461 21.4425 24.7305 19.9496 23.8992C18.4567 23.0596 17.3119 21.8925 16.5151 20.398C15.7183 18.895 15.3199 17.1528 15.3199 15.1713C15.3199 13.1898 15.7183 11.4517 16.5151 9.95717C17.3119 8.45424 18.4567 7.28715 19.9496 6.45591C21.4425 5.61629 23.2373 5.19647 25.3341 5.19647C27.4309 5.19647 29.2257 5.61629 30.7186 6.45591C32.2115 7.28715 33.3564 8.45424 34.1532 9.95717C34.9499 11.4517 35.3483 13.1898 35.3483 15.1713C35.3483 17.1528 34.9499 18.895 34.1532 20.398C33.3564 21.8925 32.2115 23.0596 30.7186 23.8992C29.2257 24.7305 27.4309 25.1461 25.3341 25.1461ZM25.3844 20.0076C25.9715 20.0076 26.479 19.8102 26.9067 19.4156C27.3344 19.021 27.6657 18.4584 27.9006 17.728C28.1354 16.9975 28.2528 16.1285 28.2528 15.1209C28.2528 14.1049 28.1354 13.2359 27.9006 12.5139C27.6657 11.7834 27.3344 11.2208 26.9067 10.8262C26.479 10.4316 25.9715 10.2343 25.3844 10.2343C24.7638 10.2343 24.2312 10.4316 23.7867 10.8262C23.3422 11.2208 23.0025 11.7834 22.7677 12.5139C22.5328 13.2359 22.4154 14.1049 22.4154 15.1209C22.4154 16.1285 22.5328 16.9975 22.7677 17.728C23.0025 18.4584 23.3422 19.021 23.7867 19.4156C24.2312 19.8102 24.7638 20.0076 25.3844 20.0076Z" fill="#4EA8DE"/>
</svg>
